<?xml version="1.0" encoding="utf-8"?>
<!-- Generator: Adobe Illustrator 26.5.0, SVG Export Plug-In . SVG Version: 6.00 Build 0)  -->
<svg version="1.1" id="Layer_1" xmlns="http://www.w3.org/2000/svg" xmlns:xlink="http://www.w3.org/1999/xlink" x="0px" y="0px"
	 viewBox="0 0 700 700" style="enable-background:new 0 0 700 700;" xml:space="preserve">
<style type="text/css">
	.st0{fill:#55C8E9;}
	.st1{fill:#F05223;}
</style>
<g>
	<path class="st0" d="M149.5,453.9h-37.2c-4.8,0-8.7,3.8-8.7,8.7v141.9c0,4.8,3.9,8.7,8.7,8.7h37.2c4.8,0,8.7-3.8,8.7-8.7V462.6
		C158.2,457.8,154.3,453.9,149.5,453.9z"/>
	<path class="st1" d="M267,257.7L267,257.7c4.2,13.1-7.7,34.5,0.2,45.5c8,11,32.2,6.2,43.2,14.2c10.9,7.9,13.7,32.5,26.8,36.7
		c12.6,4.1,29.3-13.9,43.3-13.9s30.7,18.1,43.3,13.9c13.1-4.2,16-28.8,26.8-36.7c11-8,35.2-3.2,43.2-14.2
		c7.9-10.9-4.1-32.4,0.2-45.5c4.1-12.6,26.6-22.9,26.6-36.9s-22.5-24.3-26.6-36.9c-4.2-13.1,7.7-34.5-0.2-45.5
		c-7.9-10.9-32.1-6.2-43.1-14.2c-10.9-7.9-13.7-32.5-26.8-36.7c-12.6-4.1-29.3,13.9-43.3,13.9s-30.7-18.1-43.3-13.9
		c-13.1,4.2-16,28.8-26.8,36.7c-11,8-35.2,3.2-43.2,14.2c-7.9,10.9,4.1,32.4-0.2,45.5c-4.1,12.6-26.6,22.9-26.6,36.9
		C240.5,234.8,262.8,245.1,267,257.7z M380.5,129.4c50.4,0,91.4,41,91.4,91.4s-41,91.4-91.4,91.4s-91.4-41-91.4-91.4
		S330.1,129.4,380.5,129.4z"/>
	<path class="st1" d="M380.5,295.2c41,0,74.4-33.3,74.4-74.4c0-41-33.3-74.4-74.4-74.4s-74.4,33.3-74.4,74.4
		C306.1,261.8,339.4,295.2,380.5,295.2z M366.1,200l14.4-29.2l14.4,29.2l32.2,4.7l-23.2,22.7l5.5,32.1l-28.8-15.1l-28.8,15.1
		l5.5-32.1l-23.2-22.7L366.1,200z"/>
	<path class="st1" d="M587.9,212.3h-34.2c-4.7,0-8.5,3.8-8.5,8.5s3.8,8.5,8.5,8.5h34.2c4.7,0,8.5-3.8,8.5-8.5
		C596.4,216.2,592.6,212.3,587.9,212.3z"/>
	<path class="st1" d="M215.6,220.8c0-4.7-3.8-8.5-8.5-8.5H173c-4.7,0-8.5,3.8-8.5,8.5s3.8,8.5,8.5,8.5h34.2
		C211.9,229.3,215.6,225.5,215.6,220.8z"/>
	<path class="st1" d="M537.6,179.6c0.8,0,1.7-0.2,2.5-0.4l31-9.8c4.5-1.4,7-6.2,5.5-10.6c-1.4-4.5-6.1-7-10.6-5.5l-31,9.8
		c-4.5,1.4-7,6.2-5.5,10.6C530.6,177.3,533.9,179.6,537.6,179.6z"/>
	<path d="M537.6,179.6L537.6,179.6L537.6,179.6z"/>
	<path class="st1" d="M220.8,262.4L220.8,262.4l-31,9.8c-4.5,1.4-7,6.2-5.5,10.6c1.1,3.6,4.5,5.9,8.1,5.9c0.8,0,1.7-0.2,2.5-0.4
		l31-9.8c4.5-1.4,7-6.2,5.5-10.6C230.1,263.5,225.3,261,220.8,262.4z"/>
	<path class="st1" d="M189.9,169.4L189.9,169.4l31,9.8c0.8,0.3,1.7,0.4,2.5,0.4c3.6,0,7-2.3,8.1-5.9c1.4-4.5-1.1-9.2-5.5-10.6
		l-31-9.8c-4.5-1.4-9.2,1.1-10.6,5.5C183,163.2,185.4,168,189.9,169.4z"/>
	<path class="st1" d="M534.9,278.6L534.9,278.6l31,9.8c0.8,0.3,1.7,0.4,2.5,0.4c3.6,0,7-2.3,8.1-5.9c1.4-4.5-1.1-9.2-5.5-10.6
		l-31-9.8c-4.5-1.4-9.2,1.1-10.6,5.5C528.1,272.4,530.5,277.2,534.9,278.6z"/>
	<path class="st0" d="M552.2,457L552.2,457l-118.7,66.4c-0.6,0.3-1.3,0.6-1.9,0.8c-5.3,3.6-11.6,5.5-18.2,5.5h-60.8
		c-4.8,0-8.5-3.8-8.5-8.5c0-4.8,3.7-8.5,8.5-8.5h60.8c4.6,0,8-2,10.1-3.6c0.3-0.4,0.8-0.8,1.2-1.1c2.8-2.9,4.4-6.8,4.4-10.9
		c0-8.7-7-15.7-15.7-15.7h-65.3c-14.9,0-29.9-4.6-43.3-13.2c-11.1-7.1-27.7-11.3-45.6-11.3c-21.3,0-41.4,6.2-51.2,15.7
		c-9.1,8.6-20.4,14.8-32.8,17.8v84.3c11.2-0.9,22.9-1.4,35-1.4c52.4,0,94.4,9.6,94.8,9.7l1.2,0.1c2,0.3,4.2,0.6,6.4,0.8
		c47.9,5.9,98-4.9,141.2-30.2l115-67.5c4.1-2.4,6.9-6.3,7.9-10.9s0.1-9.2-2.6-13.2C569.2,454.9,559.7,452.7,552.2,457z"/>
	<path class="st1" d="M306.3,341.9c-1.7-3.6-4.5-9.5-6.1-10.9c-0.5-0.3-1.7-0.7-3-0.9l-37.1,70.1l53.6-17.6l15.6,54.3l39.5-74.6
		c-0.2,0.1-0.3,0.2-0.5,0.3c-8,4.3-17.1,9.2-27.2,9.2c-3.1,0-6.3-0.5-9.2-1.4l0,0C317.7,365.7,311.4,352.5,306.3,341.9z"/>
	<path class="st1" d="M460.5,331.1L460.5,331.1c-1.4,1.3-4.3,7.2-6,10.8c-5.1,10.6-11.4,23.8-25.5,28.3c-3,0.9-6,1.4-9.2,1.4
		c-10.2,0-19.3-4.8-27.2-9.2c-0.2-0.1-0.3-0.2-0.5-0.3l39.5,74.6l15.6-54.3l53.6,17.6l-37.1-70.1
		C462.3,330.4,461.1,330.8,460.5,331.1z"/>
</g>
</svg>
