<?xml version="1.0" encoding="utf-8"?>
<!-- Generator: Adobe Illustrator 26.5.0, SVG Export Plug-In . SVG Version: 6.00 Build 0)  -->
<svg version="1.1" id="Layer_1" xmlns="http://www.w3.org/2000/svg" xmlns:xlink="http://www.w3.org/1999/xlink" x="0px" y="0px"
	 viewBox="0 0 700 700" style="enable-background:new 0 0 700 700;" xml:space="preserve">
<style type="text/css">
	.st0{fill:#55C8E9;}
	.st1{fill:#F05223;}
</style>
<g>
	<rect x="477.1" y="313.3" class="st0" width="85" height="316.7"/>
	<path class="st1" d="M609.4,114.8L609.4,114.8c-13.1-0.3-22.3,14.3-16.5,25.9c-28.1,9-60-5.2-70.8-34.4c9.3-0.8,16.7-8.6,16.7-18.1
		c0-10-8.2-18.2-18.2-18.2c-10.1,0-18.2,8.1-18.2,18.2c0,9.5,7.3,17.3,16.7,18.1c-10.8,29.3-42.9,43.5-71.1,34.3
		c6.6-11.6-2.6-27.1-16.1-26.8c-10.1,0-18.2,8.1-18.2,18.2c-0.3,12.6,13.5,21.8,25,16.9l29.3,68h105.4l28.9-67.3
		c11.6,5.3,25.7-3.9,25.4-16.7C627.6,122.9,619.4,114.8,609.4,114.8z"/>
	<rect x="467.9" y="229" class="st1" width="105.3" height="33.4"/>
	<rect x="339.5" y="398.1" class="st0" width="85" height="231.9"/>
	<path class="st1" d="M388.6,308.6c-2,3.9,1.1,8.8,5.5,8.7c2.3,0,4.4-1.3,5.5-3.4c0,0,13.5-27.9,13.6-28.3l0,0
		c1-3.5-1.7-7.3-5.2-7.6l-30.8-3.1c-3.3-0.3-6.3,2.1-6.7,5.4c-0.3,3.3,2.1,6.3,5.4,6.6l12.9,1.3l-76.4,46.4
		c-5.2,2.9-2.7,11.5,3.2,11.2c1.1,0,2.2-0.3,3.2-0.9l74.2-45.1L388.6,308.6z"/>
	<path class="st1" d="M248.7,412.1c-10.8-38.3-40.1-65-73.4-65c-34.5,0-64.1,27.8-74.2,67.8C147.2,389.9,201.7,388.8,248.7,412.1z"
		/>
	<path class="st1" d="M175.3,347.2L175.3,347.2L175.3,347.2z"/>
	<path class="st1" d="M142.8,480.8h65.1c7.8-10,12.1-22.9,12.1-36.6c0-11.9-3.3-23.5-9.4-32.9c-23.5-5.4-48-4.9-71.3,1.4l0,0
		c-5.6,9.2-8.6,20.1-8.6,31.5C130.7,458,134.9,470.9,142.8,480.8z"/>
	<path class="st1" d="M128.1,480.8c-6.3-10.7-9.6-23.4-9.6-36.6l0,0c0-9.2,1.6-18,4.7-26.2c-8.6,3.4-16.9,7.6-24.9,12.7
		c-0.5,4.5-0.8,9-0.8,13.6c0,12.7,1.9,25,5.8,36.6h24.8V480.8z"/>
	<path class="st1" d="M226.5,415.9c3.6,8.8,5.5,18.4,5.5,28.3c0,13.3-3.4,25.9-9.6,36.6h24.9c3.8-11.7,5.8-24,5.8-36.6
		c0-5.6-0.4-11.1-1.1-16.6l0,0C243.7,422.9,235.2,419,226.5,415.9z"/>
	<path class="st0" d="M87.1,624.8h176.4L278.2,493H72.4L87.1,624.8z M161,554h28.6c3.4,0,6.1,2.7,6.1,6.1c0,3.3-2.7,6.1-6.1,6.1H161
		c-3.4,0-6.1-2.7-6.1-6.1S157.6,554,161,554z"/>
</g>
</svg>
