<?xml version="1.0" encoding="utf-8"?>
<!-- Generator: Adobe Illustrator 26.5.0, SVG Export Plug-In . SVG Version: 6.00 Build 0)  -->
<svg version="1.1" id="Layer_1" xmlns="http://www.w3.org/2000/svg" xmlns:xlink="http://www.w3.org/1999/xlink" x="0px" y="0px"
	 viewBox="0 0 700 700" style="enable-background:new 0 0 700 700;" xml:space="preserve">
<style type="text/css">
	.st0{fill-rule:evenodd;clip-rule:evenodd;fill:#F05223;}
	.st1{fill-rule:evenodd;clip-rule:evenodd;fill:#55C8E9;}
</style>
<g>
	<path class="st0" d="M487.1,568.8L487.1,568.8H131.3c-4.8,0-8.8,3.9-8.8,8.8c0,4.8,3.9,8.8,8.8,8.8h355.8c4.8,0,8.8-3.9,8.8-8.8
		S491.9,568.8,487.1,568.8z"/>
	<path class="st0" d="M545.4,568.8L545.4,568.8h-11.7c-4.8,0-8.8,3.9-8.8,8.8c0,4.8,3.9,8.8,8.8,8.8h11.7c4.8,0,8.8-3.9,8.8-8.8
		S550.3,568.8,545.4,568.8z"/>
	<path class="st1" d="M603.7,428.8h-32.1v-17.5h32.1c4.8,0,8.8-3.9,8.8-8.8c0-4.8-3.9-8.8-8.8-8.8h-32.1V382H525
		c-4.6,0-9.1,1.8-12.4,5.1s-5.1,7.7-5.1,12.4v40.8c0,4.6,1.8,9.1,5.1,12.4c3.3,3.3,7.7,5.1,12.4,5.1h46.7v-11.7h32.1
		c4.8,0,8.8-3.9,8.8-8.8C612.5,432.7,608.6,428.8,603.7,428.8z"/>
	<path class="st1" d="M478.3,411.2c-6.4,0-11.7,5.2-11.7,11.7l0,0v55.4c0,4.8-3.9,8.8-8.8,8.8c-4.8,0-8.8-3.9-8.8-8.8v-67.1h-35
		v-93.3h17.5c3.1,0,6.1-1.2,8.2-3.4c2.2-2.2,3.4-5.2,3.4-8.2v-35c0-3.1-1.2-6.1-3.4-8.2c-2.2-2.2-5.2-3.4-8.2-3.4H414V175
		c0-7-2.7-13.7-7.7-18.6c-4.9-4.9-11.6-7.7-18.6-7.7h-245c-7,0-13.7,2.7-18.6,7.7c-4.9,4.9-7.7,11.6-7.7,18.6v84.6H99.2
		c-6.4,0-11.7,5.2-11.7,11.7v35c0,3.1,1.2,6.1,3.4,8.2c2.2,2.2,5.2,3.4,8.2,3.4h17.5v142.9c0,7,2.7,13.7,7.7,18.6
		c4.9,4.9,11.6,7.7,18.6,7.7h245c7,0,13.7-2.7,18.6-7.7c4.9-4.9,7.7-11.6,7.7-18.6v-32.1h17.5v49.6c0,9.4,5,18,13.1,22.7
		s18.1,4.7,26.2,0s13.1-13.4,13.1-22.7v-49.6h11.7v-17.5H478.3z M157.5,205.3c0-4.2,1.7-8.2,4.6-11.1c3-3,7-4.6,11.1-4.6h184.3
		c4.2,0,8.2,1.7,11.1,4.6c3,3,4.6,7,4.6,11.1v189.6l0,0c0,4-2.3,7.6-5.8,9.3l-21.6,4.7l0,0c-3.7,1.7-7.7,2.5-11.7,2.3H196.6
		c-4-0.2-7.9-1-11.7-2.3l-21.6-4.7c-3.6-1.7-5.8-5.4-5.8-9.3V205.3z M198.3,463.7h-29.2c-3.2-0.1-6.3-1.7-8.2-4.3
		c-2.3-2.9-3.5-6.6-3.4-10.3c-0.7-7.2,4.5-13.7,11.7-14.6h29.2L198.3,463.7z M245,455c0,4.8-3.9,8.8-8.8,8.8c-4.8,0-8.8-3.9-8.8-8.8
		v-11.7c0-4.8,3.9-8.8,8.8-8.8c4.8,0,8.8,3.9,8.8,8.8V455z M274.2,455c0,4.8-3.9,8.8-8.8,8.8c-4.8,0-8.8-3.9-8.8-8.8v-11.7
		c0-4.8,3.9-8.8,8.8-8.8c4.8,0,8.8,3.9,8.8,8.8V455z M303.3,455c0,4.8-3.9,8.8-8.8,8.8c-4.8,0-8.8-3.9-8.8-8.8v-11.7
		c0-4.8,3.9-8.8,8.8-8.8c4.8,0,8.8,3.9,8.8,8.8V455L303.3,455z M361.7,463.7L361.7,463.7h-29.2v-29.2h29.2c3.2,0.1,6.3,1.7,8.2,4.3
		c2.3,2.9,3.5,6.6,3.4,10.3C374,456.4,368.9,462.8,361.7,463.7z"/>
	<path class="st1" d="M379.2,551.3c3.1,0,6.1-1.2,8.2-3.4c2.2-2.2,3.4-5.2,3.4-8.2v-40.8h-52.5v40.8c0,3.1,1.2,6.1,3.4,8.2
		s5.2,3.4,8.2,3.4H379.2z"/>
	<path class="st1" d="M180.8,551.3c3.1,0,6.1-1.2,8.2-3.4s3.4-5.2,3.4-8.2v-40.8H140v40.8c0,3.1,1.2,6.1,3.4,8.2s5.2,3.4,8.2,3.4
		H180.8z"/>
	<path class="st0" d="M525,242.1c17,0,33.3-6.8,45.4-18.8c12-12,18.8-28.4,18.8-45.4s-6.8-33.3-18.8-45.4
		c-12-12-28.4-18.8-45.4-18.8s-33.3,6.8-45.4,18.8c-12,12-18.8,28.4-18.8,45.4s6.8,33.3,18.8,45.4C491.7,235.3,508,242.1,525,242.1z
		 M539,137.1l-7,37.9h16.9L511,224.6l7-37.9h-16.9L539,137.1z"/>
</g>
</svg>
