<?xml version="1.0" encoding="utf-8"?>
<!-- Generator: Adobe Illustrator 26.5.0, SVG Export Plug-In . SVG Version: 6.00 Build 0)  -->
<svg version="1.1" id="Layer_1" xmlns="http://www.w3.org/2000/svg" xmlns:xlink="http://www.w3.org/1999/xlink" x="0px" y="0px"
	 viewBox="0 0 700 700" style="enable-background:new 0 0 700 700;" xml:space="preserve">
<style type="text/css">
	.st0{fill:#F05223;}
	.st1{fill:#55C8E9;}
</style>
<g>
	<path class="st0" d="M590,334.7c-4.9-6.9-13-11-21.5-11l0,0c-8.1,0-15.8,3.8-20.8,10.2c-5,6.5-6.7,14.8-4.6,22.7
		c2.1,7.9,7.7,14.3,15.2,17.5c-6.3,54.4-33.6,104.2-76.1,138.8s-96.9,51.1-151.4,46.2c-54.6-4.9-105-31-140.6-72.7
		c-3.1-3.7-8.7-4.1-12.3-1c-3.7,3.1-4.1,8.7-1,12.3c38.7,45.2,93.5,73.5,152.7,78.7c59.2,5.3,118.2-12.9,164.2-50.5
		c46-37.7,75.5-91.9,82.1-151c8.2-2.3,14.7-8.5,17.6-16.5C596.2,350.6,594.9,341.6,590,334.7z"/>
	<path class="st0" d="M141.2,325.8c6.3-54.4,33.6-104.2,76.1-138.7c42.5-34.6,96.9-51.1,151.4-46.2c54.6,4.9,105,31,140.6,72.7
		c1.5,1.8,3.7,3,6,3.2s4.7-0.5,6.5-2.1c1.8-1.5,2.9-3.7,3-6.1c0.2-2.4-0.7-4.7-2.2-6.4c-38.7-45.2-93.5-73.5-152.7-78.7
		c-59.2-5.3-118.2,12.9-164.2,50.5c-46,37.7-75.5,91.9-82.1,151c-7.9,2.4-14.2,8.4-17,16.1c-2.8,7.8-1.7,16.4,2.8,23.3
		c4.6,6.9,12.1,11.2,20.4,11.6c8.2,0.4,16.2-3.1,21.4-9.5s7.2-14.9,5.1-22.9C154.5,335.5,148.8,328.9,141.2,325.8z"/>
	<path class="st0" d="M272.4,350c5.6,8.8,12.6,16.6,20.7,23.2c-6.1-14.8-6.1-31.5,0-46.3C285,333.4,278,341.2,272.4,350z"/>
	<circle class="st0" cx="349.8" cy="350" r="8.8"/>
	<path class="st0" d="M349.8,306.3c-11.6,0-22.7,4.6-30.9,12.8c-8.2,8.2-12.8,19.3-12.8,30.9s4.6,22.7,12.8,30.9
		c8.2,8.2,19.3,12.8,30.9,12.8s22.7-4.6,30.9-12.8c8.2-8.2,12.8-19.3,12.8-30.9s-4.6-22.7-12.8-30.9S361.4,306.3,349.8,306.3z
		 M368.3,368.6c-4.9,4.9-11.6,7.7-18.6,7.7s-13.6-2.8-18.6-7.7c-4.9-4.9-7.7-11.6-7.7-18.6s2.8-13.6,7.7-18.6
		c4.9-4.9,11.6-7.7,18.6-7.7s13.6,2.8,18.6,7.7c4.9,4.9,7.7,11.6,7.7,18.6S373.3,363.6,368.3,368.6z"/>
	<path class="st0" d="M406.4,326.8c6.1,14.8,6.1,31.5,0,46.3c8.1-6.5,15.1-14.4,20.7-23.2C421.5,341.2,414.5,333.4,406.4,326.8z"/>
	<path class="st1" d="M487.1,376.3H516c2.3,0,4.5-0.9,6.2-2.6s2.6-3.9,2.6-6.2v-35c0-2.3-0.9-4.5-2.6-6.2c-1.6-1.6-3.9-2.6-6.2-2.6
		h-28.9c-3.6-18.7-11-36.6-21.7-52.3l20.4-20.4c1.6-1.6,2.6-3.9,2.6-6.2s-0.9-4.6-2.6-6.2l-24.7-24.8c-3.4-3.4-9-3.4-12.4,0
		l-20.4,20.4c-15.8-10.7-33.6-18.1-52.3-21.7v-28.9c0-2.3-0.9-4.5-2.6-6.2c-1.6-1.6-3.9-2.6-6.2-2.6h-35c-4.8,0-8.8,3.9-8.8,8.8
		v28.9c-18.7,3.6-36.6,11-52.3,21.7l-20.4-20.4c-3.5-3.3-8.9-3.3-12.4,0l-24.7,24.8l0,0c-1.6,1.6-2.6,3.9-2.6,6.2s0.9,4.5,2.6,6.2
		l20.4,20.4l0,0c-10.7,15.8-18.1,33.6-21.7,52.3h-28.9c-4.8,0-8.8,3.9-8.8,8.8v35c0,2.3,0.9,4.5,2.6,6.2c1.6,1.6,3.9,2.6,6.2,2.6
		h28.9c3.6,18.7,11,36.6,21.7,52.3L213.7,449c-1.6,1.6-2.6,3.9-2.6,6.2c0,2.3,0.9,4.6,2.6,6.2l24.7,24.8c3.4,3.4,9,3.4,12.4,0
		l20.4-20.4c15.8,10.7,33.6,18.1,52.3,21.7v28.9c0,2.3,0.9,4.5,2.6,6.2c1.6,1.6,3.9,2.6,6.2,2.6h35c2.3,0,4.5-0.9,6.2-2.6
		c1.6-1.6,2.6-3.9,2.6-6.2v-28.9c18.7-3.6,36.6-11,52.3-21.7l20.4,20.4c3.5,3.3,8.9,3.3,12.4,0l24.7-24.8l0,0
		c1.6-1.6,2.6-3.9,2.6-6.2c0-2.3-0.9-4.5-2.6-6.2l-20.4-20.4l0,0C476.2,412.8,483.6,395,487.1,376.3z M444.9,354.3
		c-12.3,23.1-32.7,40.9-57.1,50.1c-24.5,9.2-51.5,9.2-76,0s-44.8-27-57.1-50.1c-1.5-2.6-1.5-5.9,0-8.5
		c12.3-23.1,32.7-40.9,57.1-50.1c24.5-9.2,51.5-9.2,76,0s44.8,27,57.1,50.1C446.4,348.4,446.4,351.6,444.9,354.3z"/>
</g>
</svg>
