<?xml version="1.0" encoding="utf-8"?>
<!-- Generator: Adobe Illustrator 26.5.0, SVG Export Plug-In . SVG Version: 6.00 Build 0)  -->
<svg version="1.1" id="Layer_1" xmlns="http://www.w3.org/2000/svg" xmlns:xlink="http://www.w3.org/1999/xlink" x="0px" y="0px"
	 viewBox="0 0 700 700" style="enable-background:new 0 0 700 700;" xml:space="preserve">
<style type="text/css">
	.st0{fill:#F05223;}
	.st1{fill:#55C8E9;}
</style>
<g>
	<path class="st0" d="M511.5,106.7c-48.1,0-87.2,39-87.2,87.2c0,48.1,39,87.2,87.2,87.2c48.1,0,87.2-39,87.2-87.2
		C598.6,145.7,559.6,106.7,511.5,106.7z M539.8,230.2H486c0-4.3,0.6-8,1.8-11.1c1.2-3.1,2.9-6,5-8.4c2.1-2.5,4.6-4.8,7.4-6.8
		c2.8-2.1,5.8-4.2,8.9-6.4c1.6-1.1,3.3-2.2,5.1-3.4s3.5-2.4,5-3.8c1.5-1.4,2.8-3,3.8-4.7s1.5-3.7,1.5-6c0-3.6-1-6.3-3.1-8.3
		s-4.7-3-7.9-3c-2.2,0-4,0.5-5.5,1.5s-2.7,2.3-3.6,4c-0.9,1.6-1.5,3.4-1.9,5.4s-0.6,4-0.6,5.9h-14.2c-0.2-4.2,0.3-8.1,1.4-11.6l0,0
		c1.1-3.6,2.8-6.7,5-9.4s5-4.8,8.4-6.3s7.3-2.3,11.7-2.3c3.3,0,6.5,0.5,9.6,1.6c3,1.1,5.7,2.5,8,4.5s4.1,4.4,5.5,7.2
		c1.4,2.9,2,6.1,2,9.6c0,3.7-0.6,6.9-1.8,9.5s-2.8,5-4.7,7.1s-4.2,3.9-6.7,5.6c-2.5,1.7-5,3.3-7.5,5c-2.5,1.6-5,3.4-7.3,5.3
		c-2.4,1.9-4.5,4.1-6.3,6.6h34.6v12.7H539.8z"/>
	<path class="st1" d="M511.5,418.9c-48.2,0-87.2,39-87.2,87.2s39,87.2,87.2,87.2s87.2-39,87.2-87.2
		C598.7,458,559.6,418.9,511.5,418.9z M493.7,555.5l-42-47.2l13.1-11.7l29.9,33.5l64.4-62.1l12.2,12.7L493.7,555.5z"/>
	<path class="st1" d="M370.6,167.4h-22.5l18.7,18.7h-91.4c-3.9-44.5-41.3-79.4-86.8-79.4c-48.1,0-87.2,39-87.2,87.2
		c0,48.1,39,87.2,87.2,87.2c45.5,0,82.9-34.9,86.8-79.4h91.4l-18.7,18.7h22.5l26.5-26.5L370.6,167.4z M201.9,230.2H187l0,0v-47.5
		h-18.4v-11.2c2.6,0.1,5.1-0.1,7.5-0.6s4.6-1.2,6.5-2.4c1.9-1.1,3.5-2.7,4.9-4.6c1.3-1.9,2.2-4.2,2.6-7h11.8L201.9,230.2
		L201.9,230.2z"/>
	<path class="st0" d="M370.6,479.7h-22.5l18.7,18.7h-91.4c-3.9-44.5-41.3-79.4-86.8-79.4c-48.2,0-87.2,39-87.2,87.2
		s39,87.2,87.2,87.2c45.5,0,82.9-34.9,86.8-79.4h91.4l-18.7,18.7h22.5l26.5-26.5L370.6,479.7z M215,530.1c-1.5,3-3.5,5.5-6,7.5
		s-5.4,3.6-8.7,4.6s-6.7,1.6-10.2,1.6c-4.1,0-7.9-0.6-11.2-1.8c-3.4-1.2-6.3-2.9-8.6-5.2c-2.4-2.3-4.2-5-5.5-8.3s-1.9-7-1.8-11.3
		h14.1c0.1,1.9,0.4,3.8,0.9,5.6c0.6,1.8,1.4,3.3,2.4,4.6c1.1,1.3,2.4,2.3,3.9,3.1s3.4,1.1,5.6,1.1c3.3,0,6.2-1,8.5-3.1
		s3.4-4.9,3.4-8.4c0-2.8-0.5-4.9-1.6-6.4c-1.1-1.4-2.5-2.5-4.1-3.2c-1.7-0.7-3.5-1-5.5-1.1s-3.9-0.2-5.7-0.2v-10.5
		c1.6,0.1,3.3,0.1,5.1,0l0,0c1.8-0.1,3.5-0.5,5.1-1.2s2.9-1.6,3.9-2.9c1-1.2,1.5-2.9,1.5-5c0-3.1-1.1-5.5-3.1-7.2
		c-2.1-1.7-4.5-2.5-7.2-2.5c-3.8,0-6.6,1.2-8.5,3.7s-2.8,5.6-2.8,9.4h-14.1c0.1-3.8,0.8-7.2,2-10.3c1.2-3.1,2.9-5.8,5.1-8
		c2.2-2.2,4.8-4,7.9-5.2c3.1-1.2,6.5-1.8,10.2-1.8c2.9,0,5.9,0.4,8.8,1.3c2.9,0.9,5.6,2.2,7.9,3.9c2.3,1.8,4.2,3.9,5.7,6.4
		s2.2,5.4,2.2,8.7c0,3.6-0.9,6.7-2.6,9.4c-1.7,2.7-4.3,4.6-7.7,5.5v0.2c4,0.9,7.2,2.9,9.5,5.8c2.3,3,3.4,6.6,3.4,10.8
		C217.2,523.7,216.5,527.1,215,530.1z"/>
	<polygon class="st0" points="459.3,280.2 449.2,268.2 289.3,403.2 291.5,376.9 274.3,391.4 271.2,428.7 308.5,431.9 325.6,417.4 
		299.3,415.2 	"/>
</g>
</svg>
