<?xml version="1.0" encoding="utf-8"?>
<!-- Generator: Adobe Illustrator 26.5.0, SVG Export Plug-In . SVG Version: 6.00 Build 0)  -->
<svg version="1.1" id="Layer_1" xmlns="http://www.w3.org/2000/svg" xmlns:xlink="http://www.w3.org/1999/xlink" x="0px" y="0px"
	 viewBox="0 0 700 700" style="enable-background:new 0 0 700 700;" xml:space="preserve">
<style type="text/css">
	.st0{fill:#F05223;}
	.st1{fill:#55C8E9;}
</style>
<g>
	<path class="st0" d="M274.2,254.2l-9.7,20.4c6.8,9.6,15.2,18,24.8,24.8l20.4-9.7l0,0c4.9,2.6,9.9,4.7,15.2,6.3l7.6,22.8h35.1
		l7.6-22.8l0,0c5.3-1.6,10.4-3.7,15.2-6.3l20.4,9.7l0,0c9.6-6.8,18-15.2,24.8-24.8l-9.7-20.4l0,0c2.6-4.9,4.7-9.9,6.3-15.2l22.8-7.6
		v-35.1l-22.8-7.6c-1.6-5.3-3.7-10.4-6.3-15.2l9.7-20.4l0,0c-6.8-9.6-15.2-18-24.8-24.8l-20.4,9.7l0,0c-4.9-2.6-9.9-4.7-15.2-6.3
		l-7.6-22.8h-35.1l-7.6,22.8l-15.2,6.3l-20.4-9.7c-9.6,6.8-18,15.2-24.8,24.8l9.7,20.4l-6.3,15.2l-22.8,7.6v35.1l22.8,7.6
		L274.2,254.2z M316,179.8c9-9,21.3-14.1,34-14.1c12.8,0,25,5.1,34,14.1s14.1,21.3,14.1,34c0,12.8-5.1,25-14.1,34
		c-9,9-21.3,14.1-34,14.1c-12.8,0-25-5.1-34-14.1s-14.1-21.3-14.1-34S306.9,188.8,316,179.8z"/>
	<path class="st0" d="M214.5,113.6c-22.4,31.5-33.2,69.8-30.4,108.4s19,74.9,45.7,102.9l12.6-12.1c-26.5-27.7-41.3-64.5-41.3-102.8
		s14.8-75.1,41.3-102.8c2.6-2.7,3.2-6.8,1.4-10.1c-1.8-3.3-5.5-5.2-9.2-4.5l0,0l-52.5,8.8l2.9,17.3L214.5,113.6z"/>
	<path class="st0" d="M463.8,327.6L463.8,327.6c0.9,0,1.8-0.1,2.6-0.4l0,0l52.5-16.4l-5.2-16.7l-25.1,7.9
		c20.9-31.4,30.4-69.1,27.1-106.7c-3.4-37.6-19.4-72.9-45.5-100.2l0,0l-12.6,12.1c26.5,27.6,41.3,64.5,41.3,102.8
		s-14.8,75.1-41.3,102.8c-2.4,2.5-3.1,6.3-1.7,9.5C457.1,325.5,460.2,327.6,463.8,327.6z"/>
	<polygon class="st1" points="175,450.1 87.5,528.9 175,607.6 175,572.6 323.8,572.6 323.8,493.9 175,493.9 	"/>
	<polygon class="st1" points="612.5,432.6 525,353.9 525,388.9 376.2,388.9 376.2,467.6 525,467.6 525,511.4 	"/>
	<rect x="358.8" y="563.9" class="st1" width="78.8" height="17.5"/>
	<rect x="358.8" y="520.1" class="st1" width="78.8" height="17.5"/>
	<rect x="455" y="520.1" class="st1" width="17.5" height="17.5"/>
	<rect x="455" y="563.9" class="st1" width="17.5" height="17.5"/>
	<rect x="262.5" y="380.1" class="st1" width="78.8" height="17.5"/>
	<rect x="262.5" y="423.9" class="st1" width="78.8" height="17.5"/>
	<rect x="227.5" y="423.9" class="st1" width="17.5" height="17.5"/>
	<rect x="227.5" y="380.1" class="st1" width="17.5" height="17.5"/>
</g>
</svg>
