<?xml version="1.0" encoding="utf-8"?>
<!-- Generator: Adobe Illustrator 26.5.0, SVG Export Plug-In . SVG Version: 6.00 Build 0)  -->
<svg version="1.1" id="Layer_1" xmlns="http://www.w3.org/2000/svg" xmlns:xlink="http://www.w3.org/1999/xlink" x="0px" y="0px"
	 viewBox="0 0 700 700" style="enable-background:new 0 0 700 700;" xml:space="preserve">
<style type="text/css">
	.st0{fill:#F05223;}
	.st1{fill:#55C8E9;}
</style>
<g>
	<path class="st0" d="M362.9,223.6l21.6-52.3c5.5-13.4-13-17-17.1-7l0,0l-21.5,52.3C340.4,228.2,358.5,235.7,362.9,223.6z"/>
	<path class="st0" d="M310.9,224c5.3,0,9.6-4.5,9.2-9.9v-55c0.1-5.2-4.1-9.5-9.4-9.4c-5.1,0.1-9.2,4.3-9.1,9.4v55
		C301.3,219.4,305.6,224,310.9,224z"/>
	<path class="st0" d="M395.9,253.3l38.7-38.9c9.6-9.6-4.9-21.3-13.1-13.1l-38.7,38.9C374,248.9,387.2,262,395.9,253.3z"/>
	<path class="st1" d="M524.5,281.2c-2.9-10.2-15.2-17.7-27-14.8L279,319.8c-3.3,0.9-6.6-1.4-6.9-4.8c-0.5-53.2-3.7-68.7-24.8-95.2
		l0,0c-12.7-15.8-58.6-22.9-45.1,13c10.2,27.2,14.1,42.3,6,65.9L186,363.2c-10,29.4-14.1,66.2-9.3,101.6c9.1,35.1,29.5,66,57.5,78.8
		c26.2,12.1,57.3,5.8,90.1-3l13.3-3.6c4.5-1.2,4.4-3.5,2-6c-7.6-7.6-10.2-18.8-7.9-29.3c1.1-5,3.4-9.5,6.5-13.1
		c-5.3-1.9-10.2-5.1-14.2-9.5c-8.4-9.3-11.8-22-9.1-34.2c1.3-6.1,4.1-11.5,7.9-15.9c-5.5-1.8-10.6-5.2-14.8-9.8
		c-8.4-9.3-11.8-21.9-9.2-34.2c2.6-12.3,11.3-22.1,22.8-25.2l186.6-53.9C523.4,301.5,527.1,290.7,524.5,281.2z"/>
	<path class="st1" d="M337.7,419.1l76.1-20.4c8.6-2.3,14-7.6,17-17.5c2.7-8.5-0.7-18.5-6.7-25.2l0,0c-4.8-5.2-13.7-9.3-22-7.1
		l-77.5,21.3c-7.3,2-13.1,8.2-15,17s0.6,17.9,6.6,24.6S330.3,421.1,337.7,419.1z"/>
	<path class="st1" d="M353.7,478.9l75.8-20.3c8.6-2.6,13.5-7.8,17.2-17.6c1.8-8.7-0.7-18.5-6.7-25.1l0,0c-4.5-5-13.4-9.4-21.4-7.2
		l-78,21.4c-7.3,2-13.1,8.2-14.9,16.9c-1.9,8.8,0.5,18,6.6,24.7C338.2,478.4,346.4,480.9,353.7,478.9z"/>
	<path class="st1" d="M426.4,470.8l-72,19.7c-5.9,1.6-10.6,6.5-12.1,13.5c-1.6,7.1,0.4,14.3,5.3,19.7c4.8,5.3,11.3,7.2,17.2,5.6
		c0,0,47.1-12.4,70.6-18.6c5.6-1.5,9.9-7,11.3-14.1c1.5-7.6-0.4-16.5-5.9-21.9C436.9,470.7,433.5,468.8,426.4,470.8z"/>
	<path d="M441,474.7L441,474.7L441,474.7z"/>
</g>
</svg>
